<?xml version="1.0" encoding="UTF-8"?>
<svg width="1427px" height="263.939498px" viewBox="0 0 1427 263.939498" version="1.1" xmlns="http://www.w3.org/2000/svg" xmlns:xlink="http://www.w3.org/1999/xlink">
    <title>5E980CD1-0CF2-4243-9668-1E252AE79516svg</title>
    <g id="Final-Designs" stroke="none" stroke-width="1" fill="none" fill-rule="evenodd">
        <g id="Converge-Website-Full-Page" transform="translate(-84, -12796,277)">
            <g id="footer" transform="translate(0, 12047)">
                <g id="icon/logo-converge-lrg" transform="translate(84, 749,277)">
                    <g id="con-erge" transform="translate(0, 12,9395)" fill="#FFFFFF" fill-rule="nonzero">
                        <path d="M146.620873,36.8923885 C137.065805,15.8110236 114.990302,0 82.3712768,0 C35.5843916,0 0,32.2808399 0,93.5485564 C0,154.486877 35.5843916,186.767717 78.7469407,186.767717 C116.637728,186.767717 137.724775,162.721785 145.302932,149.216535 L113.672362,126.158793 C106.094205,139.005249 94.8917109,145.922572 81.3828215,145.922572 C60.9547449,145.922572 43.8215193,129.782152 43.8215193,93.8779528 C43.8215193,57.644357 60.9547449,41.1745407 81.7123066,41.1745407 C96.5391365,41.1745407 108.071115,49.4094488 114.331332,63.5734908 L146.620873,36.8923885 Z" id="Path"></path>
                        <path d="M248.431771,0 C203.621796,0 171.661741,32.2808399 171.661741,93.5485564 C171.661741,154.486877 203.292311,186.767717 248.431771,186.767717 C293.571231,186.767717 325.531286,154.486877 325.531286,93.5485564 C325.531286,32.2808399 293.241746,0 248.431771,0 Z M248.431771,41.1745407 C269.189333,41.1745407 283.357192,58.9619423 283.357192,93.8779528 C283.357192,128.135171 269.518818,145.922572 248.431771,145.922572 C227.674209,145.922572 213.835835,128.135171 213.835835,93.8779528 C213.835835,58.9619423 227.674209,41.1745407 248.431771,41.1745407 Z" id="Shape"></path>
                        <path d="M368.36435,4.28215223 L368.36435,182.485564 L412.84484,182.485564 L412.84484,63.5734908 C420.422997,46.1154856 432.284461,41.8333333 444.47541,41.8333333 C462.597091,41.8333333 474.129069,50.7270341 474.129069,74.7729659 L474.129069,182.485564 L518.939044,182.485564 L518.939044,69.5026247 C518.939044,20.0931759 494.886631,0 459.631725,0 C438.874163,0 422.399908,6.91732283 409.879474,20.4225722 L409.879474,4.28215223 L368.36435,4.28215223 Z" id="Path"></path>
                        <path d="M893.563611,107.053806 C894.222581,102.442257 894.552066,99.8070866 894.552066,92.2309711 C894.552066,32.9396325 862.262526,0 817.123066,0 C772.642577,0 740.682521,32.6102362 740.682521,93.2191601 C740.682521,154.486877 776.266913,186.767717 819.429462,186.767717 C852.048488,186.767717 872.147079,168.980315 882.361118,155.475066 L852.707458,129.782152 C845.788271,139.993438 835.903717,146.910761 822.065343,146.910761 C803.943662,146.910761 786.810436,135.38189 782.52713,107.053806 L893.563611,107.053806 Z M817.452551,40.1863517 C834.915262,40.1863517 847.765181,52.0446194 852.377973,74.7729659 L782.856615,74.7729659 C787.139921,52.7034121 799.660356,40.1863517 817.452551,40.1863517 Z" id="Shape"></path>
                        <path d="M1052.70492,10.8700787 C1047.10367,5.59973753 1037.87809,0 1022.39229,0 C1004.92958,0 990.432233,6.58792651 978.900254,19.7637795 L978.900254,4.28215223 L937.38513,4.28215223 L937.38513,182.485564 L981.86562,182.485564 L981.86562,63.9028871 C989.773263,46.1154856 1000.97576,41.8333333 1013.16671,41.8333333 C1023.05126,41.8333333 1030.62942,44.4685039 1036.23066,50.0682415 L1052.70492,10.8700787 Z" id="Path"></path>
                        <path d="M1188.78227,4.28215223 L1188.78227,19.4343832 C1177.57977,7.90551181 1161.76449,0 1141.6659,0 C1093.89056,0 1075.43939,44.4685039 1075.43939,86.3018373 C1075.43939,128.464567 1093.89056,172.933071 1141.6659,172.933071 C1161.76449,172.933071 1177.57977,165.027559 1188.78227,153.828084 L1188.78227,158.769029 C1188.78227,188.085302 1170.66059,201.590551 1126.1801,211.472441 L1131.12237,251 C1200.64373,237.824147 1230.62688,211.472441 1230.62688,146.910761 L1230.62688,4.28215223 L1188.78227,4.28215223 Z M1152.53891,134.064304 C1126.50958,134.064304 1117.61348,112.324147 1117.61348,86.9606299 C1117.61348,61.5971129 1126.50958,39.8569554 1152.86839,39.8569554 C1170.00162,39.8569554 1181.20411,49.4094488 1188.78227,61.5971129 L1188.78227,112.324147 C1181.20411,124.841207 1170.00162,134.064304 1152.53891,134.064304 Z" id="Shape"></path>
                        <path d="M1426.01154,107.053806 C1426.67051,102.442257 1427,99.8070866 1427,92.2309711 C1427,32.9396325 1394.71046,0 1349.571,0 C1305.09051,0 1273.13045,32.6102362 1273.13045,93.2191601 C1273.13045,154.486877 1308.71485,186.767717 1351.8774,186.767717 C1384.49642,186.767717 1404.59501,168.980315 1414.80905,155.475066 L1385.15539,129.782152 C1378.2362,139.993438 1368.35165,146.910761 1354.51328,146.910761 C1336.3916,146.910761 1319.25837,135.38189 1314.97506,107.053806 L1426.01154,107.053806 Z M1349.90048,40.1863517 C1367.3632,40.1863517 1380.21311,52.0446194 1384.82591,74.7729659 L1315.30455,74.7729659 C1319.58785,52.7034121 1332.10829,40.1863517 1349.90048,40.1863517 Z" id="Shape"></path>
                    </g>
                    <g id="Group-3" transform="translate(543, 0)">
                        <g id="Group-2">
                            <polygon id="Rectangle" fill="#FF009A" transform="translate(56,1682, 104,9055) rotate(-19) translate(-56,1682, -104,9055)" points="32.1149799 2.23747562 80.2214984 18.8018783 75.7154087 207.573503 32.4969311 192.692187"></polygon>
                            <polygon id="Rectangle" fill="#00DBE3" transform="translate(117,8318, 104,9055) scale(-1, 1) rotate(-19) translate(-117,8318, -104,9055)" points="93.7785016 2.23747562 141.88502 18.8018783 137.37893 207.573503 94.1604527 192.692187"></polygon>
                        </g>
                        <g id="Group-2" transform="translate(65,9241, 129,3073)" fill="#000089">
                            <path d="M21.076,0 L42.1517735,66.3088129 L4.97379915e-13,66.3088129 L21.076,0 Z" id="Combined-Shape"></path>
                        </g>
                    </g>
                </g>
            </g>
        </g>
    </g>
</svg>